ply
format ascii 1.0
comment VCGLIB generated
element vertex 295
property float x
property float y
property float z
property float nx
property float ny
property float nz
property int flags
element face 563
property list uchar int vertex_indices
property int flags
end_header
15.53659 85 37.26884 -1.157114 -0.5110604 -2.837466 0 
17.46451 85 36.5951 0.5438612 -0.5334594 -2.332048 0 
12.335 85 39 -2.181216 -0.4873495 -1.71181 0 
13.33943 81.57949 38.80965 -3.854911 -1.337536 -4.081284 0 
15.62356 78.09063 38.69043 -2.404116 -0.8682909 -5.523344 0 
11.33427 85 41.98727 -2.764502 -0.6818713 0.03652909 0 
13.49975 77.47121 40.88726 -5.064885 -1.057132 -3.491906 0 
16.96078 65.71283 39.79681 -1.190287 -0.3187934 -6.04326 0 
16.31959 70.49569 39.32632 -0.6179982 -1.126247 -6.034972 0 
18.68496 69.85095 39.89339 3.666651 -0.3851785 -4.491943 0 
17.84213 79.88881 38.34995 2.326051 -1.049264 -5.4828 0 
19.665 85 39 2.633232 -0.2156552 -1.146551 0 
19.665 85 40 2.956412 0.3281943 -0.7034381 0 
13.60527 59.07368 40.47635 -3.502774 -0.6574259 -4.369843 0 
14.74957 72.37444 39.51872 -3.825812 -0.4382776 -4.472549 0 
14.24934 64.77296 41.19376 -3.550513 0.2947791 -5.116239 0 
18.56304 65.68454 39.80965 3.127607 -0.8393362 -3.437008 0 
19.13548 76.48956 39.26094 4.197129 -0.4953859 -4.072251 0 
16.8498 73.26523 38.42564 0.4226952 -0.7979251 -5.223517 0 
14.08076 55.28416 41.17228 -2.929898 -0.9209693 -5.126891 0 
11.39604 62.21844 42.81582 -4.816823 0.5167857 -2.188186 0 
12.34043 64.99608 42.88918 -5.273271 0.9101167 -2.500502 0 
13.4157 69.33824 40.83189 -4.28681 -0.2168827 -3.868249 0 
15.44533 59.96651 39.68552 -0.2997764 -0.5516438 -5.432186 0 
17.51143 62.10305 39.86551 2.485835 -0.6072398 -5.236827 0 
19.66502 60.99132 41.99987 5.020444 -0.5927575 -2.425625 0 
19.66889 72.56973 41.03449 5.429733 -0.2948134 -2.097323 0 
20.1042 85 41.58685 3.043065 0.78543 0.2015395 0 
12.39295 53.04483 42.91417 -4.861643 -0.06801071 -3.196875 0 
12.29531 43.88095 42.73312 -2.288104 -0.1004809 -5.643751 0 
12.45227 58.85894 42.97857 -5.564491 -1.29011 -2.548926 0 
12.38168 68.54671 42.7806 -5.679109 0.01933261 -1.815895 0 
14.0921 49.91614 42.41923 -1.029171 -0.5310186 -6.121288 0 
15.45143 55.27763 40.87143 0.9753292 -1.364248 -5.563891 0 
18.35122 57.11843 42.04192 4.214656 -1.640686 -3.924083 0 
19.63042 68.46396 41.99312 5.984168 -0.2149235 -1.353114 0 
20.7315 83.19984 41.26202 4.88487 0.04523799 -0.420334 0 
12.33857 80.90824 41.61324 -5.950377 -0.9608524 -1.224087 0 
11.337 62.02567 45.96911 -5.497512 0.9339844 1.570485 0 
12.40324 72.73661 44.51237 -6.079065 0.01522182 -1.239686 0 
12.3615 74.57034 44.88592 -5.521549 0.1700061 1.934861 0 
13.92367 42.9144 42.43197 0.1177672 -1.570749 -5.549945 0 
17.05783 49.36385 42.48862 2.429231 -0.3569643 -5.376449 0 
19.65376 71.96266 44.01082 5.78779 0.2866539 1.668191 0 
19.67937 82.57117 43.89899 5.972269 -0.1977859 1.784215 0 
19.67628 79.68268 40.02604 5.394711 -0.4180554 -2.245948 0 
19.71943 85 43.56576 2.889753 0.220131 1.09949 0 
7.161528 35.89548 44.36623 -2.394083 -0.1569467 -4.200009 0 
10.14559 42.29579 43.90187 -3.427055 0.8435516 -4.80301 0 
11.34923 58.33583 45.90774 -6.047619 -0.4312804 -1.104045 0 
11.70022 47.94175 43.74792 -4.857941 0.355954 -3.92223 0 
12.34148 65.23717 46.42138 -5.923841 1.010044 1.462093 0 
11.47968 40.48208 43.6656 0.01646633 -2.015454 -5.612267 0 
17.63715 44.6506 42.85428 2.971848 -1.126644 -4.436727 0 
18.39098 53.63559 43.65779 5.245403 -0.5284733 -2.962688 0 
19.03462 47.74708 44.43783 5.195124 -0.05297277 -3.263287 0 
6.531579 38.80718 46.57401 -5.296231 1.8918 -1.666986 0 
8.272565 40.50401 44.90874 -4.591516 2.107107 -3.372138 0 
11.76736 38.81773 45.16233 3.306914 -4.17861 -2.874654 0 
10.37084 48.94663 45.07882 -5.07007 0.8770853 -2.255278 0 
11.36152 48.97439 50.3633 -5.526305 2.465262 1.260233 0 
12.35506 55.89915 44.4641 -5.72387 -0.01128665 -1.87142 0 
15.57677 72.59682 48.41445 -1.604867 0.9227734 5.489306 0 
12.28724 85 44.89958 -2.75175 -0.1805322 1.266716 0 
18.57761 77.05986 44.95732 4.952336 -0.02989037 0.9612526 0 
18.665 85 45 2.707473 0.4246939 1.145074 0 
19.71179 57.34772 45.18782 4.948873 -1.064928 1.189946 0 
19.6641 67.89539 44.99153 5.416457 0.3262212 2.11232 0 
5.359291 32.78175 47.05898 -5.096906 -0.5024577 -2.236507 0 
7.440687 33.56898 44.67635 -0.7192457 -1.625653 -4.549323 0 
9.090445 34.39071 45.12593 3.085205 -1.824438 -4.816784 0 
9.436821 44.47098 46.30835 -5.413784 1.759914 -2.585997 0 
11.33136 52.52176 46.15449 -6.159993 0.9854396 -0.1645145 0 
12.335 71 46 -5.255083 0.535928 2.084219 0 
15.79284 40.40615 44.39554 1.746968 -3.72207 -4.325135 0 
14.26054 69.34151 48.42997 -3.925647 1.081704 4.625343 0 
13.3136 85 46.05768 -1.897845 0.3852307 2.447533 0 
14.30802 77.214 46.91693 -3.74719 0.02500299 4.991703 0 
13.56172 81.98811 46.65183 -3.694431 0.2104281 4.73289 0 
16.08813 83.60517 47.59809 -0.4533747 1.069133 5.670001 0 
16.1739 85 47.19011 -0.1262883 0.8939203 3.02963 0 
18.17806 39.80721 46.60674 3.448936 -2.407732 -4.438386 0 
18.73878 72.64565 45.26912 5.600748 0.6172943 2.451099 0 
17.99763 76.00719 46.99736 4.774751 -0.1462391 3.859975 0 
19.00432 80.48048 45.87393 6.075015 -0.259232 1.373749 0 
19.67521 51.24377 46.10143 5.286819 1.036773 -0.4860671 0 
8.043569 29.9561 47.04346 0.02439004 -2.841252 -5.433202 0 
8.722342 44.74891 47.72079 -5.25016 2.079623 -1.20463 0 
10.61716 31.44362 47.86312 4.795428 -0.8304315 -1.336796 0 
10.59801 36.59568 46.25032 5.739726 -2.185408 -0.696868 0 
9.991701 47.018 48.06127 -5.774243 2.341021 0.2656172 0 
11.9373 38.33385 46.97415 2.219053 -5.551651 -1.232044 0 
12.20592 59.1561 47.79575 -4.795751 0.9442332 3.840772 0 
12.54875 62.74175 48.47827 -4.603762 0.5997381 3.23471 0 
16.25309 77.2617 47.95974 -0.4568714 0.1525037 5.818485 0 
18.48 85 46.54218 2.180357 0.4932443 1.696135 0 
17.13747 38.21653 47.37906 0.02195007 -4.364127 -4.067836 0 
17.66503 63.0004 48.00001 5.183455 0.2999296 2.797474 0 
18.58842 79.03831 47.75087 3.129621 -0.3826065 3.224212 0 
18.65552 61.19779 47.06049 5.541363 0.4787484 2.855498 0 
18.66499 72.01855 47 5.194937 0.7436655 2.163485 0 
5.91192 29.1878 48.24084 -4.320281 -1.960021 -3.38768 0 
5.589994 36.73728 48.79377 -5.440399 1.561744 0.4678959 0 
7.148692 27.43314 48.07826 -1.572949 -2.521235 -4.597044 0 
8.25763 40.2706 50.90115 -3.859258 0.5722414 3.977935 0 
8.096419 41.95459 47.77513 -5.801522 2.099697 -0.3934075 0 
13.96564 58.84092 50.1903 -3.423467 1.287628 4.864907 0 
15.07138 66.2478 49.60576 -1.709501 0.8356248 5.630229 0 
17.32617 69.72009 48.40187 3.764307 0.7951719 4.821887 0 
17.45152 74.18837 48.09525 3.063102 0.6466568 4.532204 0 
18.65775 52.20641 47.48883 5.749675 1.089823 1.09881 0 
18.72185 55.41691 45.6564 6.007017 -0.7319739 0.8474581 0 
19.60312 42.72235 47.76951 5.958093 -0.7987943 -1.455616 0 
5.241233 28.30576 51.18026 -5.221202 -0.5088856 0.9571537 0 
15.03756 61.20421 49.91846 -1.305165 1.237919 5.934774 0 
17.28751 61.13012 49.89333 3.139405 1.007483 4.415973 0 
17.44866 65.68182 49.68907 2.984005 0.4632685 3.268328 0 
18.61285 57.02387 49.08749 5.186211 0.3420095 2.478902 0 
19.67045 44.8446 46.19336 5.674365 -0.7471129 -1.681878 0 
19.77656 38.33975 47.94192 3.317735 -0.8464094 -4.448457 0 
6.804921 23.90417 51.14299 -4.095377 -2.212056 -3.67655 0 
5.353719 33.11269 50.96221 -4.322974 0.9090078 2.727716 0 
8.777481 25.31369 49.48439 1.516004 -2.446448 -4.786185 0 
9.311843 33.76189 50.15136 4.875226 0.5608204 3.804907 0 
10.50642 36.80305 48.61497 5.188663 -2.043032 2.161078 0 
8.882029 38.49058 50.78498 1.719033 -1.35126 5.569115 0 
9.998493 46.55881 51.56377 -4.961115 2.673117 1.990737 0 
12.48366 50.60389 51.33871 -4.416806 2.085017 3.857638 0 
15.88614 56.94872 51.47098 0.9773772 1.275037 5.184372 0 
19.52447 34.25437 49.73146 -0.3047259 -3.02409 -4.825336 0 
19.67764 42.09824 49.4122 5.79417 0.9474452 -1.436747 0 
7.790509 34.19433 51.48271 1.248359 0.9556804 5.449578 0 
8.191613 20.89681 51.88459 -1.614899 -3.128675 -4.278197 0 
9.67044 29.63326 52.15805 4.398042 2.835811 3.01019 0 
11.30173 38.30383 50.05185 1.11571 -5.016895 3.159965 0 
8.572923 42.84524 51.53489 -5.199256 0.4069743 2.189316 0 
14.82028 51.22041 52.7897 -1.148509 2.392876 5.320618 0 
15.335 37 52 -5.467906 -2.711385 -0.964159 0 
19.6912 47.45117 48.96286 5.947909 0.7970505 1.112036 0 
19.68212 44.42947 51.71286 5.75626 2.165481 -0.09073388 0 
22.6506 35.46476 50.64303 4.075423 -0.04072538 -3.917715 0 
6.775693 26.66203 53.8886 -4.52957 1.427223 3.790061 0 
6.078068 25.93214 52.24709 -6.029294 -0.6478304 0.7409475 0 
7.39206 30.50419 52.92664 -0.8720855 2.078815 4.793103 0 
10.01499 42.35044 54.18082 -3.681854 -1.040086 3.254195 0 
10.47288 28.64502 50.65695 5.76817 0.263319 -0.3270052 0 
10.62059 40.17855 51.88099 -2.281229 -3.886845 4.027096 0 
14.35376 38.33212 50.29347 -2.533611 -5.312049 0.1982882 0 
17.03951 49.31744 52.894 3.960537 2.066296 4.167548 0 
16.82539 35.60494 50.38914 -3.863317 -3.569438 -3.244055 0 
18.63669 53.30711 49.37726 5.556497 0.7125825 2.040176 0 
21.47618 32.344 50.96075 1.026881 -2.96909 -4.787006 0 
5.578067 21.99687 53.97318 -4.272326 -1.100911 0.01003045 0 
8.682117 18.30105 54.24713 -3.349534 -3.526857 -2.709171 0 
9.634591 20.61655 58.1328 -1.765298 2.318604 5.057215 0 
10.30798 27.3124 54.1585 3.534805 2.412606 2.872206 0 
10.15675 23.28403 50.89619 3.153451 -1.605602 -4.364878 0 
15.42155 34.45356 53.93247 -5.062532 -2.30143 -2.765455 0 
18.81192 45.79471 52.9037 4.630708 3.263278 2.249202 0 
7.020875 23.04962 55.99879 -3.457604 1.456514 4.208796 0 
14.35264 39.50881 54.46881 -4.834338 -2.592341 1.028094 0 
10.35736 19.0812 53.35785 1.325631 -2.990096 -5.019914 0 
12.66424 18.99864 55.00233 4.968884 -0.6634931 -2.545721 0 
10.92643 24.92113 52.09896 5.827368 0.5779968 -1.573121 0 
12.61211 46.73588 55.00478 -2.091745 2.294547 4.309365 0 
14.83773 49.55278 54.25548 -0.08718015 2.522487 4.262869 0 
18.9874 30.07611 53.58741 -2.496555 -3.980347 -3.668646 0 
23.91605 32.98486 52.04157 4.111383 -0.7378556 -3.485037 0 
8.34648 18.97727 57.30938 -5.135048 -0.9201784 2.427697 0 
10.3955 15.50621 55.40962 -2.323447 -2.614994 -4.566113 0 
11.36347 23.73376 55.65915 4.112175 2.501567 2.550671 0 
14.19543 42.03818 56.73741 -3.256685 0.4322345 4.751996 0 
14.35011 34.63906 55.54563 -5.138637 -1.648745 -0.9162002 0 
21.1775 27.43745 55.74476 -0.8368197 -4.715836 -3.568403 0 
17.75745 45.35148 54.26075 1.728255 4.007374 4.023781 0 
23.04448 39.48895 53.22039 5.403718 1.805991 -1.775979 0 
23.80827 29.91553 54.01016 2.913376 -3.013043 -4.188749 0 
23.44744 36.84166 53.69735 5.916 1.209489 -1.65691 0 
9.255877 14.39193 57.05499 -4.511376 -1.549259 -1.24442 0 
12.09482 15.66834 55.42408 2.625566 -1.120437 -5.082098 0 
12.89772 19.51454 56.41236 5.492103 1.48099 0.4457899 0 
16.732 30.73898 55.79187 -4.721558 -3.290116 -1.62962 0 
20.00418 42.27277 59.60003 0.8975527 2.948443 3.544474 0 
19.33982 44.6832 56.04088 1.117082 4.941748 1.829499 0 
25.64753 29.27973 56.06236 4.664644 -1.554973 -2.09022 0 
9.250878 16.1396 57.16632 -5.952065 -1.252792 -0.7094771 0 
13.89384 10.78126 56.77098 1.149992 -1.503252 -5.332443 0 
14.335 36 57 -5.528491 -0.331694 1.899719 0 
17.61467 28.66397 57.7853 -4.691675 -3.390799 -0.4612513 0 
15.37355 40.30958 58.06981 -3.798505 1.496765 4.533331 0 
14.99904 43.16932 56.50308 -0.9798906 3.11666 5.223881 0 
19.03114 27.28482 57.55495 -3.215478 -4.494931 -1.082433 0 
21.50974 43.51116 55.3548 4.116029 3.54704 0.2937844 0 
23.73806 27.59433 55.76092 1.914042 -3.983306 -3.72243 0 
25.66312 32.15831 55.62442 5.523121 0.3517264 -1.662704 0 
11.02309 12.36208 60.77189 -5.485173 -1.041734 1.912564 0 
15.35023 35.84537 59.78899 -5.053062 0.3878457 2.278725 0 
21.47935 25.62729 59.50042 -2.395931 -5.238809 -2.340015 0 
9.335568 17.44297 59.16071 -3.944882 0.4706401 3.536265 0 
11.40518 19.38676 59.06499 1.469893 2.684821 4.241609 0 
12.09621 10.3834 57.37201 -3.39277 -2.690091 -3.24974 0 
11.76005 15.04103 61.05672 -1.466338 1.877242 5.282638 0 
16.41444 9.636644 58.47226 4.256089 0.1876402 -2.866838 0 
14.76754 14.76812 58.31216 5.017618 2.140434 -1.050273 0 
14.7433 5.162288 59.24181 -1.641245 -2.504286 -4.357981 0 
24.31594 36.968 58.19797 5.325046 2.648755 0.7063434 0 
25.71777 32.88122 59.61293 6.022247 1.512565 -0.3931684 0 
12.89488 6.297607 60.83479 -5.182903 -2.44361 -0.7242909 0 
15.8668 1 60.99802 -1.403894 -1.316505 -2.367992 0 
15.34136 33.88041 58.37141 -5.716223 -1.740083 1.470312 0 
18.95778 27.43563 60.67257 -4.967381 -3.589844 1.032672 0 
21.39284 38.48212 61.02895 1.698801 3.266498 4.291093 0 
23.78197 25.24076 59.16111 1.525666 -4.374132 -3.441273 0 
25.60753 27.7981 58.80843 5.26334 -2.121894 -2.317158 0 
26.706 29.76358 60.01792 5.019945 0.4505915 -1.980709 0 
11.96274 11.40827 62.83183 -3.485648 0.4055824 3.665936 0 
13.5708 6.19683 63.15093 -5.29631 -0.4293076 2.933793 0 
13.03131 16.47317 60.17572 2.952063 3.167561 3.524221 0 
14.15929 12.5261 63.08477 1.085776 2.55621 4.214386 0 
18.56545 1 61.25608 1.550612 -0.06682047 -2.59845 0 
16.76904 31.44127 62.48722 -4.811078 -1.122774 2.253823 0 
16.74961 6.30988 59.33195 3.416701 -0.3402306 -4.106551 0 
17.39747 38.17377 60.47547 -2.458511 2.388023 5.090793 0 
22.0879 24.05977 62.63221 -3.901942 -4.608414 -0.6602567 0 
17.12735 34.01118 62.56018 -3.576138 1.493501 4.123084 0 
19.6673 1 62.0053 2.121654 0.8476918 -1.016606 0 
25.76069 32.66916 61.74413 5.342764 2.403773 1.499489 0 
14.19264 2.850083 63.20673 -5.809843 -1.752423 -1.225456 0 
15.87843 11.51981 61.80103 4.93236 2.6492 1.797793 0 
17.40862 7.865199 62.69786 5.695616 2.106041 0.1391244 0 
21.76856 34.94742 63.85241 -0.5771812 3.261482 4.967724 0 
15.23341 8.604603 64.32755 -0.4881452 1.939258 5.129915 0 
18.4871 29.19535 64.21556 -4.284474 -1.328621 2.705218 0 
23.34673 35.67755 62.90592 3.031893 3.552004 3.314673 0 
26.66221 29.37021 63.24531 5.797258 1.753339 0.4922599 0 
14.34772 1 64.27281 -3.065192 -0.5282348 -0.4708164 0 
17.29058 6.874284 64.78297 3.315135 2.645837 3.473687 0 
19.05142 2.691271 62.13022 5.465967 1.521678 -1.816381 0 
20.9885 27.83711 66.69939 -4.432782 -0.327752 3.858726 0 
19.97704 30.83766 64.74075 -2.99853 1.907644 5.139367 0 
19.54958 1 65.90617 2.225659 0.9975204 1.052319 0 
21.12458 25.24116 64.42889 -5.013091 -3.353577 0.8311028 0 
14.335 1 66 -2.418318 0.4152247 1.338836 0 
17.68359 1 67.63326 0.748666 1.051961 2.248137 0 
22.8082 29.28639 67.82287 -1.882446 2.473556 4.734156 0 
23.86588 23.45479 61.10514 0.1604899 -4.279315 -2.570924 0 
26.48808 24.52902 62.76494 4.473141 -2.49302 -3.204581 0 
28.06225 26.08373 64.36759 4.904484 0.7756689 -2.06526 0 
15.79528 1 67.43392 -1.036038 0.9405245 2.391021 0 
23.16451 32.23693 65.54471 0.3139264 3.362426 4.774228 0 
25.94842 29.28003 66.13038 4.543162 3.696573 1.976366 0 
23.17125 24.19062 68.95036 -5.035588 -1.295051 2.760026 0 
26.2058 20.51977 71.58621 -3.424978 -4.381778 0.3200423 0 
23.99411 26.16337 69.38474 -3.992875 2.238372 4.064668 0 
25.91328 20.55985 68.4842 -1.376204 -4.948445 -0.8667406 0 
25.587 28.03435 68.59849 1.031731 4.642788 3.27159 0 
28.1205 26.38947 68.23084 4.818818 3.733255 -0.3454105 0 
29.39811 22.95293 68.28223 4.901769 -0.9992608 -2.840659 0 
25.64333 22.01178 72.2291 -5.562097 -1.72591 2.081033 0 
29.99696 19.34642 71.92939 1.567429 -4.057712 -2.033772 0 
28.93165 20.59697 70.16454 1.888003 -4.664909 -2.963364 0 
26.66933 20.91513 75.28708 -4.531209 -1.403039 2.437286 0 
25.27794 25.80529 71.77569 -4.225467 2.380389 3.19582 0 
27.40974 19.43718 73.48006 -2.738822 -4.687684 -0.1383596 0 
27.07747 27.48286 71.47188 0.1527192 4.378521 1.296682 0 
30.88944 23.899 71.48505 5.193906 2.227858 -2.048131 0 
30.31208 25.46325 72.49847 3.957401 3.851653 -1.385568 0 
29.26158 26.08098 74.38692 0.722341 4.868189 1.816327 0 
31.61143 21.47615 72.1419 4.942573 -1.129764 -2.165459 0 
28.3364 23.80106 76.49271 -4.885422 2.494697 2.77783 0 
29.1589 18.89932 75.68332 -2.263809 -5.43926 -0.6526471 0 
28.20268 20.02002 76.83915 -5.135058 -2.431176 1.805035 0 
28.41861 22.13859 78.92406 -4.996489 0.5305893 2.294986 0 
30.37524 19.1835 74.61211 1.810866 -5.38677 -1.866064 0 
30.97321 24.55178 76.8316 3.380807 4.978643 0.3335699 0 
31.97167 20.55831 75.0034 5.037992 -2.050688 -2.700318 0 
29.44986 18.49484 79.10463 -4.888134 -3.208076 0.2947257 0 
34.06938 19.5473 77.99445 4.736564 -1.089446 -2.8988 0 
32.16803 16.44909 80.51704 -0.4737457 -5.215929 -3.083113 0 
29.53041 24.72767 77.7729 -1.91981 4.512322 1.944005 0 
32.01422 22.97013 75.05383 5.518139 2.14562 -1.30205 0 
29.30572 19.34052 82.10757 -4.957082 -0.3412332 1.893952 0 
32.65753 14.70177 82.99985 -0.8291638 -2.159063 -1.466533 0 
32.44437 23.88726 80.81622 1.347843 4.443077 1.272723 0 
34.75096 21.56986 81.15756 4.758525 3.072203 -0.1033236 0 
35.31343 19.62615 80.99977 5.590175 0.518643 -1.950246 0 
33.92733 17.36684 79.81172 3.318578 -3.511159 -3.31536 0 
32.61024 22.53692 83.28734 0.3382496 2.522153 1.627926 0 
30.36183 17.29458 82.98469 -2.632717 -1.667432 0.4779132 0 
30.40212 20.57577 83.13009 -2.471344 1.191655 2.199302 0 
29.53769 22.88418 80.29871 -3.989436 2.761459 2.933758 0 
34.27524 14.26571 83.00211 0.4548229 -1.502833 -1.510385 0 
35.97695 16.27386 83.10271 2.022898 -0.8838914 -1.406291 0 
35.23406 20.2947 83.00576 2.705277 1.682299 0.1277347 0 
36 18.98749 83.01176 2.770334 0.5398682 -0.7739785 0 
3 4 0 1 0 
3 3 2 0 0 
3 4 3 0 0 
3 14 4 18 0 
3 4 10 18 0 
3 1 10 4 0 
3 17 18 10 0 
3 10 1 45 0 
3 1 11 45 0 
3 3 37 2 0 
3 2 37 5 0 
3 6 37 3 0 
3 6 4 14 0 
3 4 6 3 0 
3 14 8 7 0 
3 18 8 14 0 
3 7 24 23 0 
3 24 7 16 0 
3 16 7 8 0 
3 9 16 8 0 
3 18 9 8 0 
3 17 10 45 0 
3 45 11 12 0 
3 14 22 39 0 
3 14 39 6 0 
3 33 19 13 0 
3 13 23 33 0 
3 23 13 15 0 
3 7 15 22 0 
3 14 7 22 0 
3 15 7 23 0 
3 16 35 24 0 
3 35 16 9 0 
3 35 9 26 0 
3 9 18 26 0 
3 26 18 17 0 
3 45 26 17 0 
3 36 45 12 0 
3 36 12 27 0 
3 13 19 30 0 
3 13 20 15 0 
3 20 21 15 0 
3 31 22 15 0 
3 15 21 31 0 
3 31 39 22 0 
3 33 32 19 0 
3 42 32 33 0 
3 33 23 34 0 
3 23 24 34 0 
3 24 25 34 0 
3 35 25 24 0 
3 44 45 36 0 
3 13 30 20 0 
3 41 29 32 0 
3 28 32 29 0 
3 28 19 32 0 
3 19 28 30 0 
3 37 6 39 0 
3 32 42 41 0 
3 42 53 41 0 
3 42 33 54 0 
3 54 33 34 0 
3 54 34 66 0 
3 66 34 25 0 
3 35 26 43 0 
3 43 26 45 0 
3 44 27 46 0 
3 44 36 27 0 
3 52 47 48 0 
3 50 29 48 0 
3 52 48 29 0 
3 30 49 20 0 
3 20 49 38 0 
3 29 41 52 0 
3 29 50 28 0 
3 28 50 61 0 
3 30 28 61 0 
3 21 20 38 0 
3 51 21 38 0 
3 52 41 74 0 
3 53 74 41 0 
3 53 42 55 0 
3 55 42 54 0 
3 66 25 35 0 
3 35 67 66 0 
3 67 35 43 0 
3 45 44 43 0 
3 46 84 44 0 
3 70 69 47 0 
3 70 47 52 0 
3 47 57 48 0 
3 52 58 70 0 
3 48 71 50 0 
3 71 59 50 0 
3 50 59 61 0 
3 49 60 38 0 
3 30 61 49 0 
3 31 21 51 0 
3 39 31 51 0 
3 40 37 39 0 
3 37 40 63 0 
3 5 37 63 0 
3 74 58 52 0 
3 53 81 74 0 
3 55 54 111 0 
3 66 111 54 0 
3 43 82 67 0 
3 82 43 64 0 
3 64 43 44 0 
3 84 64 44 0 
3 84 46 65 0 
3 47 69 68 0 
3 47 56 57 0 
3 71 48 57 0 
3 89 70 58 0 
3 90 59 71 0 
3 59 72 61 0 
3 61 72 49 0 
3 74 91 58 0 
3 73 39 51 0 
3 40 39 73 0 
3 78 63 40 0 
3 63 78 76 0 
3 53 118 81 0 
3 53 55 118 0 
3 64 84 82 0 
3 84 65 95 0 
3 55 85 118 0 
3 85 55 111 0 
3 99 66 67 0 
3 99 67 82 0 
3 101 68 69 0 
3 102 56 47 0 
3 69 86 101 0 
3 57 56 105 0 
3 86 69 70 0 
3 57 105 71 0 
3 70 89 88 0 
3 72 59 90 0 
3 124 89 58 0 
3 58 91 124 0 
3 49 72 60 0 
3 60 92 38 0 
3 92 51 38 0 
3 75 73 51 0 
3 40 73 75 0 
3 75 62 40 0 
3 77 40 62 0 
3 40 77 78 0 
3 78 79 76 0 
3 76 79 80 0 
3 96 91 74 0 
3 74 81 96 0 
3 81 118 112 0 
3 82 100 99 0 
3 109 100 82 0 
3 109 82 83 0 
3 83 82 84 0 
3 98 83 84 0 
3 98 84 95 0 
3 138 118 85 0 
3 111 110 85 0 
3 66 99 111 0 
3 68 102 47 0 
3 86 103 101 0 
3 122 103 86 0 
3 122 86 70 0 
3 71 105 87 0 
3 122 70 88 0 
3 71 87 90 0 
3 88 89 124 0 
3 60 72 90 0 
3 93 51 92 0 
3 75 51 93 0 
3 147 134 91 0 
3 96 147 91 0 
3 78 77 94 0 
3 62 94 77 0 
3 79 78 94 0 
3 98 79 94 0 
3 79 98 95 0 
3 79 95 80 0 
3 109 83 94 0 
3 98 94 83 0 
3 96 81 119 0 
3 85 110 138 0 
3 111 150 110 0 
3 150 111 99 0 
3 99 117 150 0 
3 115 117 99 0 
3 99 97 115 0 
3 97 99 108 0 
3 108 99 100 0 
3 100 109 108 0 
3 119 81 112 0 
3 130 112 118 0 
3 121 102 68 0 
3 105 56 102 0 
3 123 88 124 0 
3 124 91 134 0 
3 106 93 92 0 
3 92 60 106 0 
3 93 107 75 0 
3 75 107 62 0 
3 108 109 62 0 
3 109 94 62 0 
3 116 115 97 0 
3 108 116 97 0 
3 129 96 119 0 
3 150 138 110 0 
3 112 130 119 0 
3 120 113 101 0 
3 113 68 101 0 
3 68 113 121 0 
3 101 103 120 0 
3 102 121 104 0 
3 120 103 122 0 
3 104 105 102 0 
3 104 135 105 0 
3 87 105 135 0 
3 135 126 87 0 
3 122 88 145 0 
3 123 133 88 0 
3 90 87 126 0 
3 126 60 90 0 
3 60 127 106 0 
3 106 114 93 0 
3 107 93 114 0 
3 115 116 114 0 
3 107 114 116 0 
3 62 107 116 0 
3 129 149 96 0 
3 116 108 62 0 
3 117 128 150 0 
3 139 130 118 0 
3 138 139 118 0 
3 129 119 140 0 
3 140 119 175 0 
3 119 130 175 0 
3 132 120 122 0 
3 131 123 125 0 
3 123 124 125 0 
3 124 134 125 0 
3 156 122 145 0 
3 145 88 133 0 
3 134 147 146 0 
3 106 128 114 0 
3 147 96 149 0 
3 115 114 128 0 
3 128 117 115 0 
3 129 140 151 0 
3 175 130 139 0 
3 140 167 151 0 
3 120 142 113 0 
3 113 143 121 0 
3 121 131 104 0 
3 133 123 143 0 
3 131 143 123 0 
3 131 125 104 0 
3 135 104 125 0 
3 156 132 122 0 
3 125 134 146 0 
3 146 135 125 0 
3 163 156 145 0 
3 127 60 126 0 
3 127 136 106 0 
3 128 106 136 0 
3 149 157 137 0 
3 147 149 137 0 
3 160 147 137 0 
3 138 150 148 0 
3 138 158 139 0 
3 167 176 151 0 
3 141 113 142 0 
3 152 120 132 0 
3 152 142 120 0 
3 143 113 141 0 
3 143 131 121 0 
3 155 133 143 0 
3 161 153 132 0 
3 156 161 132 0 
3 146 144 135 0 
3 126 135 144 0 
3 163 145 155 0 
3 155 145 133 0 
3 165 127 126 0 
3 160 146 147 0 
3 165 136 127 0 
3 160 137 157 0 
3 128 136 148 0 
3 150 128 148 0 
3 149 129 166 0 
3 138 148 158 0 
3 129 151 166 0 
3 173 166 151 0 
3 175 139 158 0 
3 175 177 140 0 
3 177 167 140 0 
3 132 153 152 0 
3 141 142 152 0 
3 141 154 143 0 
3 143 154 155 0 
3 170 163 155 0 
3 144 146 160 0 
3 144 164 126 0 
3 161 156 162 0 
3 156 163 162 0 
3 164 165 126 0 
3 165 148 136 0 
3 148 165 174 0 
3 148 174 158 0 
3 175 158 192 0 
3 173 151 176 0 
3 152 159 141 0 
3 168 152 153 0 
3 154 141 159 0 
3 153 161 169 0 
3 161 179 169 0 
3 160 171 144 0 
3 179 161 162 0 
3 180 162 163 0 
3 172 157 181 0 
3 160 157 172 0 
3 164 190 174 0 
3 165 164 174 0 
3 149 181 157 0 
3 181 149 166 0 
3 192 158 174 0 
3 176 193 173 0 
3 177 194 167 0 
3 176 167 194 0 
3 152 168 159 0 
3 153 169 185 0 
3 154 170 155 0 
3 180 179 162 0 
3 163 170 180 0 
3 164 144 171 0 
3 171 190 164 0 
3 188 181 166 0 
3 174 190 183 0 
3 183 192 174 0 
3 192 205 175 0 
3 184 193 176 0 
3 184 176 194 0 
3 154 159 168 0 
3 168 153 185 0 
3 169 178 185 0 
3 169 200 178 0 
3 200 169 186 0 
3 169 179 186 0 
3 203 202 179 0 
3 203 179 180 0 
3 202 186 179 0 
3 172 181 209 0 
3 172 209 187 0 
3 160 172 187 0 
3 171 160 187 0 
3 166 191 188 0 
3 182 183 190 0 
3 205 177 175 0 
3 177 205 194 0 
3 200 195 178 0 
3 168 185 198 0 
3 203 180 199 0 
3 170 199 180 0 
3 204 200 186 0 
3 204 186 202 0 
3 189 187 209 0 
3 171 187 189 0 
3 209 181 188 0 
3 171 189 190 0 
3 189 182 190 0 
3 191 166 173 0 
3 182 192 183 0 
3 173 193 212 0 
3 192 182 205 0 
3 212 193 184 0 
3 184 213 212 0 
3 198 185 178 0 
3 154 168 198 0 
3 199 170 154 0 
3 199 217 203 0 
3 202 221 204 0 
3 209 196 189 0 
3 209 188 210 0 
3 173 197 191 0 
3 188 191 197 0 
3 173 212 197 0 
3 213 184 194 0 
3 206 213 194 0 
3 194 205 206 0 
3 205 226 206 0 
3 198 178 195 0 
3 201 198 195 0 
3 198 201 199 0 
3 199 154 198 0 
3 201 217 199 0 
3 200 207 195 0 
3 189 196 222 0 
3 219 208 204 0 
3 229 221 202 0 
3 228 229 202 0 
3 202 203 228 0 
3 204 221 219 0 
3 182 189 222 0 
3 197 223 188 0 
3 205 182 211 0 
3 213 246 212 0 
3 214 213 206 0 
3 204 207 200 0 
3 228 203 217 0 
3 224 196 209 0 
3 224 222 196 0 
3 210 220 209 0 
3 223 210 188 0 
3 222 211 182 0 
3 245 223 197 0 
3 212 245 197 0 
3 245 212 246 0 
3 246 213 214 0 
3 195 207 216 0 
3 216 215 195 0 
3 215 201 195 0 
3 201 215 217 0 
3 218 217 215 0 
3 216 207 227 0 
3 204 208 227 0 
3 227 207 204 0 
3 218 228 217 0 
3 209 220 224 0 
3 219 221 237 0 
3 210 223 220 0 
3 211 222 224 0 
3 219 237 225 0 
3 211 233 205 0 
3 233 226 205 0 
3 234 214 226 0 
3 206 226 214 0 
3 235 227 208 0 
3 224 220 232 0 
3 221 229 237 0 
3 232 220 223 0 
3 230 211 224 0 
3 211 230 233 0 
3 246 214 234 0 
3 226 233 234 0 
3 231 215 216 0 
3 218 215 231 0 
3 231 236 228 0 
3 228 218 231 0 
3 229 228 236 0 
3 232 239 224 0 
3 240 237 229 0 
3 236 240 229 0 
3 239 249 224 0 
3 249 230 224 0 
3 223 241 232 0 
3 233 230 249 0 
3 245 254 223 0 
3 247 246 234 0 
3 237 240 225 0 
3 232 238 239 0 
3 233 250 234 0 
3 250 247 234 0 
3 227 235 242 0 
3 216 227 242 0 
3 238 232 241 0 
3 233 249 250 0 
3 245 246 260 0 
3 256 247 250 0 
3 216 242 248 0 
3 231 216 248 0 
3 236 243 240 0 
3 251 238 241 0 
3 239 238 244 0 
3 249 239 244 0 
3 241 223 254 0 
3 254 252 241 0 
3 260 254 245 0 
3 257 260 246 0 
3 246 247 257 0 
3 257 247 256 0 
3 231 248 243 0 
3 236 231 243 0 
3 252 251 241 0 
3 250 249 255 0 
3 255 256 250 0 
3 244 238 251 0 
3 251 253 244 0 
3 244 253 255 0 
3 255 249 244 0 
3 255 264 256 0 
3 257 256 265 0 
3 252 258 251 0 
3 253 251 262 0 
3 255 253 262 0 
3 252 254 260 0 
3 256 264 265 0 
3 260 257 268 0 
3 265 268 257 0 
3 262 251 258 0 
3 264 255 262 0 
3 252 260 259 0 
3 264 266 265 0 
3 268 259 260 0 
3 258 261 262 0 
3 258 252 263 0 
3 263 252 259 0 
3 259 273 263 0 
3 264 267 266 0 
3 261 258 263 0 
3 264 262 269 0 
3 275 273 259 0 
3 275 259 268 0 
3 280 275 268 0 
3 268 265 280 0 
3 265 266 280 0 
3 261 269 262 0 
3 273 270 263 0 
3 269 267 264 0 
3 267 274 266 0 
3 266 274 280 0 
3 270 271 263 0 
3 261 263 271 0 
3 269 261 271 0 
3 279 267 269 0 
3 280 277 275 0 
3 269 271 272 0 
3 269 272 279 0 
3 274 267 279 0 
3 273 275 286 0 
3 275 277 286 0 
3 272 271 276 0 
3 290 279 272 0 
3 276 271 270 0 
3 278 276 270 0 
3 279 283 274 0 
3 278 270 273 0 
3 280 274 283 0 
3 286 278 273 0 
3 283 284 280 0 
3 285 277 280 0 
3 290 272 276 0 
3 286 277 285 0 
3 280 284 285 0 
3 276 281 290 0 
3 283 279 290 0 
3 278 282 276 0 
3 292 286 285 0 
3 276 282 288 0 
3 288 281 276 0 
3 281 288 289 0 
3 290 281 289 0 
3 278 286 282 0 
3 282 286 291 0 
3 284 283 287 0 
3 292 291 286 0 
3 293 284 287 0 
3 292 285 294 0 
3 293 294 285 0 
3 285 284 293 0 
3 287 290 289 0 
3 287 283 290 0 
