ply
format ascii 1.0
comment VCGLIB generated
element vertex 8
property float x
property float y
property float z
property float nx
property float ny
property float nz
property int flags
property uchar red
property uchar green
property uchar blue
property uchar alpha
element face 12
property list uchar int vertex_indices
property int flags
property uchar red
property uchar green
property uchar blue
property uchar alpha
end_header
-0.5 -0.5 -0.5 -0.5773503 -0.5773503 -0.5773503 0 229 149 33 255 
-0.5 0.5 -0.5 -0.5773503 0.5773503 -0.5773503 0 229 149 33 255 
0.5 0.5 -0.5 0.5773503 0.5773503 -0.5773503 0 229 149 33 255 
0.5 -0.5 -0.5 0.5773503 -0.5773503 -0.5773503 0 229 149 33 255 
-0.5 -0.5 0.5 -0.5773503 -0.5773503 0.5773503 0 229 149 33 255 
-0.5 0.5 0.5 -0.5773503 0.5773503 0.5773503 0 229 149 33 255 
0.5 0.5 0.5 0.5773503 0.5773503 0.5773503 0 229 149 33 255 
0.5 -0.5 0.5 0.5773503 -0.5773503 0.5773503 0 229 149 33 255 
3 1 2 0 16 229 149 33 255 
3 2 3 0 16 229 149 33 255 
3 5 6 1 16 229 149 33 255 
3 6 2 1 16 229 149 33 255 
3 0 3 7 16 229 149 33 255 
3 4 0 7 16 229 149 33 255 
3 0 5 1 16 229 149 33 255 
3 5 0 4 16 229 149 33 255 
3 3 2 7 16 229 149 33 255 
3 7 2 6 16 229 149 33 255 
3 4 6 5 16 229 149 33 255 
3 4 7 6 16 229 149 33 255 
