ply
format ascii 1.0
comment VCGLIB generated
element vertex 86
property float x
property float y
property float z
property float nx
property float ny
property float nz
property int flags
property uchar red
property uchar green
property uchar blue
property uchar alpha
element face 126
property list uchar int vertex_indices
property int flags
property uchar red
property uchar green
property uchar blue
property uchar alpha
end_header
-0.8864872 0.6273802 -9.823598 2.723141 4.432966 -2.87868 0 169 150 67 255 
-0.8689803 0.595852 -9.838382 2.479287 1.749744 -5.007071 0 187 166 51 255 
-0.8998578 0.6190445 -9.837702 1.186164 3.241422 -4.938924 0 165 147 72 255 
-0.9411019 0.6317653 -9.823127 0.06876431 4.408058 -4.423384 0 141 148 89 255 
-0.9919145 0.6415913 -9.826326 0.8696617 3.147159 -5.124365 0 144 147 87 255 
-0.9812134 0.6356174 -9.826326 1.100326 3.524784 -5.042439 0 144 147 86 255 
-0.8706384 0.5267525 -9.835575 0.7873868 -0.1095931 -2.233 0 225 160 32 255 
-0.845872 0.5447463 -9.829277 0.8451492 -0.06721483 -2.522319 0 222 166 29 255 
-0.9120209 0.5334926 -9.852309 0.7965667 -0.2970558 -3.579644 0 220 174 25 255 
-0.9313937 0.5582917 -9.856743 0.498837 -0.07688475 -6.190196 0 209 170 33 255 
-0.998921 0.5470713 -9.850626 -0.4239322 0.04867421 -2.134229 0 170 161 61 255 
-0.9622674 0.5484553 -9.857194 -0.1899592 -0.008056775 -3.928325 0 165 155 69 255 
-0.9493883 0.583059 -9.855238 -0.1525158 1.188569 -6.079743 0 165 155 69 255 
-1.016915 0.5718377 -9.845774 -0.6100138 0.1790865 -2.275885 0 164 161 63 255 
-0.9921486 0.5898315 -9.850996 -0.9405745 1.220656 -5.925035 0 146 149 84 255 
-0.9246211 0.6010534 -9.850962 0.3445117 2.379721 -5.455261 0 176 160 58 255 
-0.9666219 0.6079023 -9.84461 -0.0004630685 3.070547 -5.414536 0 132 147 95 255 
-1.009756 0.6148904 -9.840562 -0.3064345 1.61708 -3.468899 0 143 147 88 255 
-0.906625 0.5763544 -9.85266 1.484964 0.4484555 -5.944343 0 219 173 25 255 
-0.8331937 0.5715212 -9.823518 1.731436 1.191173 -3.371462 0 207 163 38 255 
-0.9370369 0.5226586 -9.851711 0.09688412 -0.284336 -1.904973 0 204 165 40 255 
-0.8088225 0.5762243 -9.811414 1.042326 1.952323 -1.91956 0 184 130 58 255 
-0.8363372 0.5931635 -9.811682 3.163203 3.928101 -3.609387 0 177 152 64 255 
-0.8589966 0.6082169 -9.821173 3.362079 4.025526 -2.838086 0 177 154 62 255 
-0.9112639 0.6365196 -9.826532 0.363068 4.179998 -3.587419 0 152 151 82 255 
-0.8410927 0.6060152 -9.792622 2.281877 4.474277 -3.364397 0 185 178 37 255 
-0.8706861 0.6191059 -9.79569 3.084392 4.070188 -2.250378 0 187 176 38 255 
-1.024516 0.6343139 -9.8269 -0.1824691 0.9442348 -1.610097 0 149 148 81 255 
-1.00337 0.657359 -9.816626 0.5972439 2.499426 -3.327319 0 156 147 78 255 
-0.9561432 0.6547337 -9.800959 1.401893 4.060017 -4.52627 0 152 146 80 255 
-1.019848 0.684442 -9.795731 0.3030982 1.223108 -1.62845 0 155 154 74 255 
-0.8196999 0.6170644 -9.775382 1.086588 2.455586 -3.164148 0 219 163 30 255 
-0.8095266 0.6085729 -9.77797 0.7724419 1.686324 -1.909783 0 222 162 28 255 
-0.8883062 0.6362661 -9.796367 2.96613 4.674396 -2.733053 0 188 178 47 255 
-0.9026856 0.6597334 -9.778587 2.056164 4.72673 -3.455011 0 180 175 49 255 
-0.9349841 0.6701443 -9.781775 1.996548 4.276015 -4.079289 0 161 168 67 255 
-0.7933422 0.5807024 -9.79789 0.5435573 1.226451 -1.128309 0 227 143 35 255 
-0.8300636 0.6037127 -9.790568 1.91935 4.366492 -4.019564 0 222 162 28 255 
-0.9210543 0.6530823 -9.793651 1.374913 4.757609 -3.777602 0 169 169 61 255 
-0.8865347 0.6632132 -9.762545 1.669552 4.699911 -3.762097 0 182 178 50 255 
-0.8374166 0.6393905 -9.763978 1.319782 3.805672 -4.761215 0 193 175 43 255 
-0.8672807 0.6435194 -9.775442 2.284631 4.116328 -4.123835 0 187 174 50 255 
-0.9571508 0.6979085 -9.765099 2.083712 3.759446 -4.519512 0 162 169 54 255 
-0.9796521 0.6745052 -9.795712 1.632767 3.699158 -4.782288 0 143 146 84 255 
-0.9999459 0.7055371 -9.779147 0.7355932 1.584072 -2.228732 0 149 158 71 255 
-0.954078 0.6946877 -9.76734 1.985755 4.217355 -4.153745 0 163 169 62 255 
-0.8532766 0.6586202 -9.750237 1.086294 3.418666 -4.818559 0 221 187 26 255 
-0.8146998 0.6482694 -9.755616 0.2730792 1.913784 -3.226285 0 223 168 31 255 
-0.7920094 0.6680633 -9.741954 0.2401813 1.21696 -1.531378 0 184 174 44 255 
-0.8366581 0.6760148 -9.742638 0.2993502 3.724576 -4.815058 0 197 175 43 255 
-0.868315 0.6798018 -9.741817 0.8312339 4.369909 -4.299099 0 198 177 41 255 
-0.9069277 0.6758048 -9.749071 1.884142 4.317143 -3.634531 0 181 175 53 255 
-0.945887 0.7378159 -9.737002 1.495257 0.7859625 -2.903957 0 205 186 28 255 
-0.9279364 0.7120124 -9.735065 2.93722 2.358207 -4.838535 0 185 178 45 255 
-0.9718308 0.7181138 -9.758663 1.09677 1.64761 -2.671139 0 157 171 49 255 
-0.9254462 0.6871527 -9.75455 3.145837 3.770799 -3.909431 0 173 173 56 255 
-0.8243424 0.6995779 -9.714947 0.3363026 2.553103 -4.700693 0 200 181 32 255 
-0.8631529 0.6943954 -9.71919 0.46676 3.388205 -4.671662 0 194 179 37 255 
-0.8111119 0.6992105 -9.712439 0.269396 1.355311 -1.268897 0 195 178 34 255 
-0.8858638 0.7026345 -9.716113 1.115037 2.159812 -4.937944 0 190 181 33 255 
-0.8705756 0.7224036 -9.713834 0.3334458 0.453546 -6.211477 0 184 185 27 255 
-0.8041542 0.7140245 -9.713666 0.006814715 0.02751391 -1.323237 0 185 185 27 255 
-0.9043033 0.7293355 -9.720312 2.145699 0.5676869 -5.825029 0 194 181 34 255 
-0.8795361 0.74733 -9.712288 0.5746698 0.2927898 -4.029121 0 182 186 26 255 
-0.9306947 0.7568826 -9.731254 1.030171 0.008214923 -2.464135 0 187 179 37 255 
-0.89753 0.7720964 -9.716084 0.6257578 0.06788832 -1.688838 0 188 181 34 255 
-0.8470862 0.7504092 -9.715194 -0.0765768 -0.04928893 -2.337685 0 182 186 26 255 
-0.9969804 1.02748 -9.164971 -0.9821165 2.307089 0.6266539 0 153 113 93 255 
-0.9487432 1.050916 -9.183443 -0.3909123 1.198907 0.3847373 0 147 114 99 255 
-0.8846297 1.046351 -9.15283 0.09507297 1.80315 0.7948999 0 139 114 106 255 
-0.9967971 1.017848 -9.129223 -2.36641 5.426003 1.880731 0 152 112 94 255 
-0.9149128 1.050842 -9.161241 -0.2158743 2.164832 1.097927 0 141 114 104 255 
-1.024889 0.9994727 -9.122217 -1.046962 2.074821 0.6771536 0 149 116 93 255 
-0.9352041 1.02557 -9.122362 -0.7352545 5.290088 3.287931 0 115 108 116 255 
-0.8993957 1.034274 -9.123669 -0.5083901 5.578746 2.703312 0 151 109 96 255 
-0.9423349 1.042236 -9.152757 -0.8669268 4.305197 2.018355 0 116 108 116 255 
-0.8820829 1.034873 -9.129215 0.2614477 2.887756 1.127948 0 167 115 84 255 
-0.9918803 1.005538 -9.094292 -1.21061 5.540876 2.421338 0 101 112 122 255 
-0.9340967 0.9992677 -9.086028 -0.3662009 4.931197 3.802361 0 85 113 133 255 
-0.8798286 1.027844 -9.105372 -0.5157714 2.791243 1.649021 0 113 105 125 255 
-0.8730187 1.016733 -9.086866 -0.6244226 2.086801 1.612939 0 168 89 90 255 
-0.9625317 0.9917006 -9.069372 0.4079693 3.384787 1.789249 0 137 133 92 255 
-0.9269685 0.9769644 -9.061064 -0.2934217 2.158968 1.874405 0 158 115 85 255 
-0.9818658 0.9923398 -9.060989 0.03206672 2.21973 0.8700691 0 133 132 93 255 
-1.019182 0.9901334 -9.076519 -0.6164309 1.863741 0.6684731 0 173 116 78 255 
-0.878599 0.9805561 -9.043708 -0.3924172 1.09491 0.8670526 0 214 104 63 255 
3 1 0 23 16 175 160 56 255 
3 1 2 0 16 176 156 57 255 
3 2 24 0 16 164 148 71 255 
3 1 6 8 16 216 168 30 255 
3 7 6 1 16 217 165 32 255 
3 18 8 9 16 213 170 30 255 
3 8 18 1 16 214 172 28 255 
3 1 19 7 16 211 166 34 255 
3 11 12 9 16 179 160 57 255 
3 14 10 13 16 160 157 69 255 
3 11 10 14 16 160 155 71 255 
3 12 11 14 16 158 153 74 255 
3 14 16 12 16 144 149 85 255 
3 18 9 12 16 196 166 42 255 
3 12 15 18 16 186 163 50 255 
3 15 1 18 16 194 165 43 255 
3 2 1 15 16 177 156 59 255 
3 15 12 16 16 154 152 77 255 
3 15 16 3 16 149 151 80 255 
3 2 15 3 16 160 151 73 255 
3 24 2 3 16 153 148 80 255 
3 14 13 17 16 152 152 76 255 
3 16 14 17 16 138 147 90 255 
3 4 17 27 16 146 147 84 255 
3 16 17 5 16 136 146 92 255 
3 3 16 5 16 135 146 92 255 
3 5 17 4 16 143 147 87 255 
3 8 20 9 16 209 167 35 255 
3 9 20 11 16 207 168 35 255 
3 19 1 22 16 194 153 52 255 
3 22 21 19 16 207 153 44 255 
3 1 23 22 16 182 162 54 255 
3 37 21 22 16 186 152 57 255 
3 22 23 25 16 170 158 60 255 
3 37 22 25 16 167 160 58 255 
3 25 23 26 16 185 177 37 255 
3 23 0 33 16 170 163 57 255 
3 33 26 23 16 176 168 49 255 
3 0 24 38 16 154 155 78 255 
3 33 0 38 16 160 160 70 255 
3 24 3 38 16 149 152 84 255 
3 27 28 4 16 149 147 82 255 
3 5 29 3 16 146 146 84 255 
3 38 3 29 16 148 152 83 255 
3 35 28 43 16 147 146 82 255 
3 29 28 35 16 150 146 80 255 
3 4 28 29 16 150 146 81 255 
3 5 4 29 16 146 146 84 255 
3 30 43 28 16 148 148 80 255 
3 37 36 21 16 211 145 44 255 
3 31 37 25 16 174 171 49 255 
3 36 37 32 16 223 155 30 255 
3 32 37 31 16 220 162 28 255 
3 26 33 41 16 183 172 49 255 
3 33 38 34 16 172 170 56 255 
3 38 35 34 16 159 164 70 255 
3 25 40 31 16 186 173 46 255 
3 31 40 47 16 195 174 41 255 
3 41 40 25 16 189 174 46 255 
3 25 26 41 16 191 175 45 255 
3 33 39 41 16 188 177 47 255 
3 34 39 33 16 185 177 47 255 
3 39 34 51 16 180 176 49 255 
3 51 35 55 16 169 172 60 255 
3 34 35 51 16 173 174 56 255 
3 35 38 29 16 154 158 76 255 
3 43 45 35 16 150 153 75 255 
3 35 45 55 16 163 169 63 255 
3 43 30 44 16 146 152 78 255 
3 43 44 42 16 151 157 69 255 
3 45 43 42 16 156 161 65 255 
3 46 40 41 16 196 175 44 255 
3 41 39 46 16 203 179 38 255 
3 40 46 47 16 210 174 36 255 
3 46 39 50 16 205 180 36 255 
3 46 49 47 16 202 179 39 255 
3 47 49 48 16 183 170 53 255 
3 49 50 57 16 191 174 46 255 
3 46 50 49 16 199 177 41 255 
3 50 51 59 16 197 178 42 255 
3 57 50 59 16 197 177 41 255 
3 39 51 50 16 196 178 42 255 
3 51 55 53 16 179 175 51 255 
3 53 55 45 16 174 173 52 255 
3 44 54 42 16 158 170 50 255 
3 42 53 45 16 170 172 51 255 
3 52 53 42 16 183 177 42 255 
3 54 52 42 16 174 175 43 255 
3 48 49 58 16 187 175 41 255 
3 58 49 56 16 191 177 39 255 
3 56 49 57 16 210 182 28 255 
3 59 60 57 16 190 180 33 255 
3 56 57 60 16 210 184 26 255 
3 60 61 56 16 205 184 27 255 
3 62 59 53 16 189 179 39 255 
3 53 59 51 16 188 178 43 255 
3 62 60 59 16 190 181 32 255 
3 63 60 62 16 188 183 30 255 
3 63 66 60 16 182 185 26 255 
3 60 66 61 16 183 185 26 255 
3 52 62 53 16 194 181 35 255 
3 64 62 52 16 195 182 33 255 
3 65 62 64 16 189 180 35 255 
3 63 62 65 16 188 182 31 255 
3 68 67 70 16 150 113 95 255 
3 70 75 68 16 148 113 97 255 
3 74 76 69 16 146 112 100 255 
3 73 75 77 16 115 108 116 255 
3 72 70 67 16 142 112 99 255 
3 75 70 77 16 128 109 108 255 
3 71 75 73 16 139 112 103 255 
3 74 71 73 16 141 111 102 255 
3 79 74 73 16 143 109 99 255 
3 71 74 69 16 143 112 102 255 
3 79 73 78 16 88 100 145 255 
3 76 74 79 16 164 112 85 255 
3 79 78 80 16 176 106 78 255 
3 78 77 81 16 94 112 126 255 
3 73 77 78 16 105 109 121 255 
3 77 72 84 16 131 115 103 255 
3 70 72 77 16 122 112 109 255 
3 80 82 85 16 186 88 75 255 
3 78 81 82 16 112 110 118 255 
3 78 82 80 16 156 87 99 255 
3 77 84 83 16 135 120 97 255 
3 81 77 83 16 110 119 112 255 
